<svg width="363" height="344" viewBox="0 0 363 344" fill="none" xmlns="http://www.w3.org/2000/svg">
<path d="M130.565 333.809C63.9449 328.469 21.3349 284.969 40.6449 218.379C38.3649 264.449 64.7249 302.099 104.275 276.889C165.655 233.889 99.7249 137.249 131.885 74.8393C132.645 73.1693 130.775 71.2492 129.085 72.0492C82.6849 91.5692 43.5649 128.119 20.2749 172.679C-0.545111 212.519 -10.1051 263.739 15.1149 304.049C36.4549 338.179 77.4349 347.509 114.825 338.559C120.165 337.279 125.415 335.679 130.575 333.809H130.565Z" fill="url(#paint0_linear_55_48)"/>
<path d="M40.6248 218.409C21.3548 284.989 63.9848 328.479 130.565 333.799C125.395 335.669 120.145 337.279 114.805 338.549C99.9048 342.119 84.4348 342.789 69.8648 340.139C47.7948 336.129 28.9648 321.119 21.7248 299.879C7.7748 258.939 39.4348 219.839 40.6248 218.409Z" fill="url(#paint1_linear_55_48)"/>
<g style="mix-blend-mode:multiply" opacity="0.5">
<path d="M40.6247 218.399C34.6547 239.049 34.6247 257.479 39.4247 273.219C30.5347 255.769 22.5047 267.859 22.1247 283.009C21.1947 293.319 23.7747 303.429 28.0147 312.789C25.4247 308.809 23.3247 304.489 21.7447 299.869C7.78467 258.929 39.4447 219.839 40.6347 218.389L40.6247 218.399Z" fill="url(#paint2_linear_55_48)"/>
</g>
<path d="M112.195 80.0692C117.705 77.1292 123.355 74.4693 129.085 72.0493L134.435 69.6193C102.275 132.049 169.425 233.279 104.255 276.889C95.005 282.799 86.475 285.249 78.875 284.949C84.455 284.319 90.495 282.069 96.865 277.889C151.365 238.429 84.155 143.269 112.185 80.0692H112.195Z" fill="url(#paint3_linear_55_48)"/>
<g style="mix-blend-mode:screen">
<path d="M96.865 277.899C103.455 272.299 108.685 265.369 111.785 257.589C113.355 253.709 114.455 249.669 115.145 245.549C115.835 241.429 116.235 237.259 116.305 233.049C116.405 224.639 115.695 216.189 114.475 207.759C113.295 199.329 111.775 190.899 110.215 182.449C107.115 165.549 103.915 148.439 103.045 130.989C102.855 126.629 102.755 122.259 102.945 117.889C103.135 113.519 103.505 109.149 104.175 104.819C105.555 96.1892 108.035 87.6692 112.195 80.0692C109.345 88.2392 107.785 96.6792 107.305 105.159C107.025 109.399 106.985 113.649 107.155 117.889C107.315 122.129 107.595 126.379 108.045 130.609C109.805 147.549 113.445 164.309 116.535 181.289C118.075 189.779 119.545 198.339 120.505 207.009C121.405 215.669 122.015 224.469 121.305 233.289C120.955 237.689 120.355 242.099 119.265 246.409C118.165 250.719 116.675 254.939 114.655 258.899C110.545 266.799 104.305 273.449 96.885 277.889L96.865 277.899Z" fill="url(#paint4_radial_55_48)"/>
</g>
<path d="M321.375 167.049C350.065 227.409 333.695 286.069 266.365 302.639C307.405 281.579 326.835 239.929 285.225 218.279C217.295 186.619 166.565 292.039 96.4347 295.399C94.6147 295.579 93.8847 298.159 95.4147 299.219C135.515 329.639 186.735 345.249 236.975 343.139C281.885 341.249 331.025 323.919 353.325 281.929C372.205 246.379 359.805 206.229 333.355 178.329C329.585 174.349 325.565 170.589 321.365 167.059L321.375 167.049Z" fill="url(#paint5_linear_55_48)"/>
<path d="M266.405 302.639C333.705 286.039 350.055 227.379 321.365 167.049C325.575 170.589 329.585 174.329 333.355 178.319C343.895 189.439 352.215 202.509 357.195 216.449C364.755 237.569 361.175 261.379 346.405 278.269C317.925 310.819 268.235 302.949 266.405 302.639Z" fill="url(#paint6_linear_55_48)"/>
<g style="mix-blend-mode:multiply" opacity="0.5">
<path d="M266.395 302.649C287.265 297.499 303.235 288.299 314.475 276.279C303.805 292.709 318.295 293.609 331.605 286.369C341.005 282.019 348.465 274.729 354.445 266.379C352.295 270.619 349.605 274.589 346.395 278.269C317.925 310.829 268.235 302.949 266.395 302.649Z" fill="url(#paint7_linear_55_48)"/>
</g>
<path d="M110.815 309.829C105.515 306.519 100.385 302.969 95.4248 299.209L90.6448 295.789C160.785 292.419 214.885 183.659 285.235 218.289C294.975 223.349 301.365 229.509 304.915 236.239C301.575 231.719 296.615 227.619 289.805 224.189C228.375 196.719 179.575 302.499 110.825 309.829H110.815Z" fill="url(#paint8_linear_55_48)"/>
<g style="mix-blend-mode:screen">
<path d="M289.795 224.189C281.655 221.289 273.035 220.219 264.745 221.419C260.605 221.999 256.545 223.069 252.635 224.529C248.725 225.989 244.905 227.729 241.235 229.779C233.905 233.899 226.935 238.739 220.255 244.009C213.545 249.249 207.005 254.779 200.465 260.359C187.385 271.499 174.165 282.819 159.485 292.299C155.805 294.649 152.065 296.919 148.185 298.939C144.305 300.959 140.335 302.819 136.255 304.409C128.095 307.529 119.475 309.639 110.805 309.839C119.295 308.219 127.395 305.349 134.985 301.529C138.795 299.649 142.495 297.559 146.085 295.299C149.675 293.039 153.215 290.679 156.655 288.169C170.445 278.179 183.135 266.639 196.305 255.479C202.895 249.899 209.565 244.349 216.595 239.189C223.645 234.079 230.955 229.149 238.955 225.359C242.935 223.459 247.055 221.769 251.345 220.569C255.625 219.369 260.025 218.549 264.465 218.319C273.355 217.929 282.245 220.009 289.795 224.209V224.189Z" fill="url(#paint9_radial_55_48)"/>
</g>
<path d="M81.5549 85.1793C119.485 30.1493 178.465 14.9993 226.485 65.0193C187.735 40.0093 141.945 44.0093 143.995 90.8593C150.545 165.519 267.205 156.739 305.175 215.799C306.245 217.289 308.845 216.629 308.995 214.769C315.285 164.829 303.195 112.669 276.255 70.2192C252.165 32.2692 212.585 -1.61075 165.065 0.059252C124.835 1.47925 96.2749 32.2992 85.3249 69.1592C83.7649 74.4192 82.5249 79.7693 81.5549 85.1793Z" fill="url(#paint10_linear_55_48)"/>
<path d="M226.465 64.9893C178.435 15.0093 119.465 30.1792 81.5649 85.1892C82.5249 79.7792 83.765 74.4292 85.335 69.1692C89.695 54.4792 96.855 40.7492 106.435 29.4592C120.945 12.3492 143.355 3.54924 165.365 7.89924C207.795 16.2892 225.825 63.2592 226.475 64.9992L226.465 64.9893Z" fill="url(#paint11_linear_55_48)"/>
<path d="M226.465 64.9992C211.565 49.4992 195.615 40.2693 179.585 36.5493C199.145 37.5793 192.685 24.5792 179.755 16.6692C171.285 10.7092 161.245 7.87925 151.025 6.87925C155.775 6.61925 160.555 6.96925 165.345 7.90925C207.775 16.2893 225.795 63.2492 226.465 65.0092V64.9992Z" fill="url(#paint12_linear_55_48)"/>
<path d="M310.475 196.139C310.265 202.379 309.745 208.599 308.975 214.779L308.405 220.629C270.415 161.569 149.175 169.099 143.995 90.8593C143.505 79.8893 145.645 71.2792 149.705 64.8392C147.465 69.9892 146.395 76.3392 146.815 83.9492C153.745 150.879 269.755 140.259 310.475 196.129V196.139Z" fill="url(#paint13_linear_55_48)"/>
<g style="mix-blend-mode:screen">
<path d="M114.875 21.1393C123.135 12.6893 134.345 6.73925 146.455 4.77925C152.495 3.73925 158.745 3.75925 164.845 4.72925C166.385 4.90925 167.865 5.32926 169.375 5.62926C170.875 5.96926 172.345 6.43925 173.825 6.83925C175.285 7.32925 176.735 7.83925 178.175 8.38925C179.585 9.00925 181.035 9.52925 182.405 10.2292C187.945 12.8992 193.125 16.2593 197.775 20.1893C202.405 24.1393 206.635 28.5292 210.285 33.3092C213.965 38.0693 217.185 43.1492 219.905 48.4592C222.585 53.7792 224.955 59.2593 226.455 64.9993C223.635 59.8093 220.575 54.8293 217.215 50.0793C213.875 45.3293 210.305 40.7793 206.425 36.5493C202.575 32.2993 198.385 28.4093 193.945 24.9093C192.815 24.0593 191.695 23.1993 190.545 22.3893C189.365 21.6193 188.235 20.7692 187.015 20.0692L185.225 18.9592C184.615 18.5992 183.995 18.2792 183.385 17.9292C182.175 17.2192 180.905 16.6292 179.645 16.0092C174.615 13.5592 169.255 11.7992 163.775 10.6992L161.725 10.3092C161.035 10.1992 160.345 10.1293 159.655 10.0293C158.275 9.81925 156.885 9.75926 155.485 9.62926C152.695 9.51926 149.885 9.48925 147.085 9.75925C135.825 10.6292 124.815 14.7593 114.885 21.1293L114.875 21.1393Z" fill="url(#paint14_radial_55_48)"/>
</g>
<g style="mix-blend-mode:screen">
<path d="M146.825 83.9593C148.385 92.4593 151.765 100.459 156.945 107.039C159.515 110.339 162.475 113.309 165.695 115.969C168.915 118.629 172.335 121.059 175.935 123.219C183.165 127.509 190.845 131.119 198.745 134.279C206.635 137.469 214.695 140.369 222.795 143.239C238.985 148.999 255.395 154.779 270.945 162.759C274.815 164.769 278.655 166.869 282.345 169.219C286.035 171.569 289.635 174.079 293.045 176.809C299.825 182.319 305.965 188.729 310.465 196.129C304.815 189.579 298.285 184.009 291.175 179.349C287.645 176.989 283.985 174.829 280.225 172.849C276.465 170.869 272.655 168.979 268.765 167.259C253.215 160.309 236.885 155.089 220.635 149.269C212.515 146.359 204.365 143.349 196.385 139.849C188.435 136.299 180.515 132.429 173.225 127.409C169.585 124.909 166.065 122.179 162.885 119.079C159.705 115.979 156.795 112.569 154.375 108.839C149.595 101.329 146.955 92.5993 146.805 83.9593H146.825Z" fill="url(#paint15_radial_55_48)"/>
</g>
<path d="M81.5549 85.1793C119.485 30.1493 178.465 14.9993 226.485 65.0193C187.735 40.0093 141.945 44.0093 143.995 90.8593C150.545 165.519 267.205 156.739 305.175 215.799C306.245 217.289 308.845 216.629 308.995 214.769C315.285 164.829 303.195 112.669 276.255 70.2192C252.165 32.2692 212.585 -1.61075 165.065 0.059252C124.835 1.47925 96.2749 32.2992 85.3249 69.1592C83.7649 74.4192 82.5249 79.7693 81.5549 85.1793Z" fill="url(#paint16_linear_55_48)"/>
<path d="M226.465 64.9893C178.435 15.0093 119.465 30.1792 81.5649 85.1892C82.5249 79.7792 83.765 74.4292 85.335 69.1692C89.695 54.4792 96.855 40.7492 106.435 29.4592C120.945 12.3492 143.355 3.54924 165.365 7.89924C207.795 16.2892 225.825 63.2592 226.475 64.9992L226.465 64.9893Z" fill="url(#paint17_linear_55_48)"/>
<g style="mix-blend-mode:multiply" opacity="0.5">
<path d="M226.465 64.9992C211.565 49.4992 195.615 40.2693 179.585 36.5493C199.145 37.5793 192.685 24.5792 179.755 16.6692C171.285 10.7092 161.245 7.87925 151.025 6.87925C155.775 6.61925 160.555 6.96925 165.345 7.90925C207.775 16.2893 225.795 63.2492 226.465 65.0092V64.9992Z" fill="url(#paint18_linear_55_48)"/>
</g>
<path d="M310.475 196.139C310.265 202.379 309.745 208.599 308.975 214.779L308.405 220.629C270.415 161.569 149.175 169.099 143.995 90.8593C143.505 79.8893 145.645 71.2792 149.705 64.8392C147.465 69.9892 146.395 76.3392 146.815 83.9492C153.745 150.879 269.755 140.259 310.475 196.129V196.139Z" fill="url(#paint19_linear_55_48)"/>
<g style="mix-blend-mode:screen">
<path d="M146.825 83.9593C148.385 92.4693 151.815 100.449 157.015 106.999C162.135 113.619 168.785 118.869 175.955 123.219C183.195 127.499 190.865 131.109 198.765 134.269C206.645 137.479 214.695 140.409 222.815 143.239C230.895 146.179 239.045 149.039 247.125 152.179C255.165 155.399 263.225 158.719 270.955 162.769C278.715 166.739 286.225 171.349 293.055 176.819C299.845 182.329 305.975 188.739 310.485 196.139C299.195 182.939 284.255 174.209 268.785 167.279C260.985 163.869 253.055 160.719 244.985 157.859C236.935 154.929 228.815 152.119 220.665 149.269C204.495 143.369 187.965 137.309 173.255 127.409C165.955 122.469 159.275 116.289 154.455 108.799C149.655 101.319 146.975 92.5992 146.825 83.9492V83.9593Z" fill="url(#paint20_radial_55_48)"/>
</g>
<path d="M181.205 221.419C195.167 221.419 206.485 210.101 206.485 196.139C206.485 182.177 195.167 170.859 181.205 170.859C167.243 170.859 155.925 182.177 155.925 196.139C155.925 210.101 167.243 221.419 181.205 221.419Z" fill="url(#paint21_linear_55_48)"/>
<defs>
<linearGradient id="paint0_linear_55_48" x1="35.4135" y1="126.905" x2="154.096" y2="319.293" gradientUnits="userSpaceOnUse">
<stop stop-color="#97DB3F"/>
<stop offset="0.17" stop-color="#84CB44"/>
<stop offset="0.51" stop-color="#54A352"/>
<stop offset="0.99" stop-color="#086268"/>
<stop offset="1" stop-color="#076169"/>
</linearGradient>
<linearGradient id="paint1_linear_55_48" x1="21.5658" y1="229.892" x2="97.9143" y2="353.673" gradientUnits="userSpaceOnUse">
<stop stop-color="#C3116E"/>
<stop offset="1" stop-color="#FFDC4B"/>
</linearGradient>
<linearGradient id="paint2_linear_55_48" x1="14.9572" y1="234.231" x2="53.6592" y2="296.965" gradientUnits="userSpaceOnUse">
<stop stop-color="white"/>
<stop offset="0.08" stop-color="#F5F5F5"/>
<stop offset="0.23" stop-color="#DBDBDB"/>
<stop offset="0.41" stop-color="#B1B1B1"/>
<stop offset="0.62" stop-color="#777777"/>
<stop offset="0.86" stop-color="#2E2E2E"/>
<stop offset="1"/>
</linearGradient>
<linearGradient id="paint3_linear_55_48" x1="149.214" y1="251.011" x2="65.9394" y2="106.774" gradientUnits="userSpaceOnUse">
<stop stop-color="#97DB3F"/>
<stop offset="0.17" stop-color="#84CB44"/>
<stop offset="0.51" stop-color="#54A352"/>
<stop offset="0.99" stop-color="#086268"/>
<stop offset="1" stop-color="#076169"/>
</linearGradient>
<radialGradient id="paint4_radial_55_48" cx="0" cy="0" r="1" gradientUnits="userSpaceOnUse" gradientTransform="translate(108.565 179.629) scale(71.96 71.96)">
<stop stop-color="#A5E061"/>
<stop offset="1"/>
</radialGradient>
<linearGradient id="paint5_linear_55_48" x1="189.746" y1="352.908" x2="297.018" y2="153.933" gradientUnits="userSpaceOnUse">
<stop stop-color="#97DB3F"/>
<stop offset="0.17" stop-color="#84CB44"/>
<stop offset="0.51" stop-color="#54A352"/>
<stop offset="0.99" stop-color="#086268"/>
<stop offset="1" stop-color="#076169"/>
</linearGradient>
<linearGradient id="paint6_linear_55_48" x1="285.677" y1="313.251" x2="354.701" y2="185.24" gradientUnits="userSpaceOnUse">
<stop stop-color="#C3116E"/>
<stop offset="1" stop-color="#FFDC4B"/>
</linearGradient>
<linearGradient id="paint7_linear_55_48" x1="292.943" y1="316.966" x2="327.921" y2="252.083" gradientUnits="userSpaceOnUse">
<stop stop-color="white"/>
<stop offset="0.08" stop-color="#F5F5F5"/>
<stop offset="0.23" stop-color="#DBDBDB"/>
<stop offset="0.41" stop-color="#B1B1B1"/>
<stop offset="0.62" stop-color="#777777"/>
<stop offset="0.86" stop-color="#2E2E2E"/>
<stop offset="1"/>
</linearGradient>
<linearGradient id="paint8_linear_55_48" x1="240.338" y1="192.302" x2="157.068" y2="336.53" gradientUnits="userSpaceOnUse">
<stop stop-color="#97DB3F"/>
<stop offset="0.17" stop-color="#84CB44"/>
<stop offset="0.51" stop-color="#54A352"/>
<stop offset="0.99" stop-color="#086268"/>
<stop offset="1" stop-color="#076169"/>
</linearGradient>
<radialGradient id="paint9_radial_55_48" cx="0" cy="0" r="1" gradientUnits="userSpaceOnUse" gradientTransform="translate(200.795 264.729) scale(72.42 72.42)">
<stop stop-color="#A5E061"/>
<stop offset="1"/>
</radialGradient>
<linearGradient id="paint10_linear_55_48" x1="308.313" y1="106.234" x2="82.3587" y2="112.822" gradientUnits="userSpaceOnUse">
<stop stop-color="#97DB3F"/>
<stop offset="0.17" stop-color="#84CB44"/>
<stop offset="0.51" stop-color="#54A352"/>
<stop offset="0.99" stop-color="#086268"/>
<stop offset="1" stop-color="#076169"/>
</linearGradient>
<linearGradient id="paint11_linear_55_48" x1="225.802" y1="42.8314" x2="80.4393" y2="47.0587" gradientUnits="userSpaceOnUse">
<stop stop-color="#C3116E"/>
<stop offset="1" stop-color="#FFDC4B"/>
</linearGradient>
<linearGradient id="paint12_linear_55_48" x1="225.595" y1="34.8492" x2="151.915" y2="36.9992" gradientUnits="userSpaceOnUse">
<stop stop-color="white"/>
<stop offset="0.08" stop-color="#F5F5F5"/>
<stop offset="0.23" stop-color="#DBDBDB"/>
<stop offset="0.41" stop-color="#B1B1B1"/>
<stop offset="0.62" stop-color="#777777"/>
<stop offset="0.86" stop-color="#2E2E2E"/>
<stop offset="1"/>
</linearGradient>
<linearGradient id="paint13_linear_55_48" x1="143.925" y1="142.739" x2="310.475" y2="142.739" gradientUnits="userSpaceOnUse">
<stop stop-color="#97DB3F"/>
<stop offset="0.17" stop-color="#84CB44"/>
<stop offset="0.51" stop-color="#54A352"/>
<stop offset="0.99" stop-color="#086268"/>
<stop offset="1" stop-color="#076169"/>
</linearGradient>
<radialGradient id="paint14_radial_55_48" cx="0" cy="0" r="1" gradientUnits="userSpaceOnUse" gradientTransform="translate(171.155 34.8492) scale(46.79 46.79)">
<stop stop-color="#A5E061"/>
<stop offset="1"/>
</radialGradient>
<radialGradient id="paint15_radial_55_48" cx="0" cy="0" r="1" gradientUnits="userSpaceOnUse" gradientTransform="translate(228.355 140.829) scale(72.28 72.28)">
<stop stop-color="#A5E061"/>
<stop offset="1"/>
</radialGradient>
<linearGradient id="paint16_linear_55_48" x1="308.313" y1="106.234" x2="82.3587" y2="112.822" gradientUnits="userSpaceOnUse">
<stop stop-color="#97DB3F"/>
<stop offset="0.17" stop-color="#84CB44"/>
<stop offset="0.51" stop-color="#54A352"/>
<stop offset="0.99" stop-color="#086268"/>
<stop offset="1" stop-color="#076169"/>
</linearGradient>
<linearGradient id="paint17_linear_55_48" x1="225.802" y1="42.8314" x2="80.4393" y2="47.0587" gradientUnits="userSpaceOnUse">
<stop stop-color="#C3116E"/>
<stop offset="1" stop-color="#FFDC4B"/>
</linearGradient>
<linearGradient id="paint18_linear_55_48" x1="225.585" y1="34.8492" x2="151.905" y2="36.9992" gradientUnits="userSpaceOnUse">
<stop stop-color="white"/>
<stop offset="0.08" stop-color="#F5F5F5"/>
<stop offset="0.23" stop-color="#DBDBDB"/>
<stop offset="0.41" stop-color="#B1B1B1"/>
<stop offset="0.62" stop-color="#777777"/>
<stop offset="0.86" stop-color="#2E2E2E"/>
<stop offset="1"/>
</linearGradient>
<linearGradient id="paint19_linear_55_48" x1="143.925" y1="142.739" x2="310.475" y2="142.739" gradientUnits="userSpaceOnUse">
<stop stop-color="#97DB3F"/>
<stop offset="0.17" stop-color="#84CB44"/>
<stop offset="0.51" stop-color="#54A352"/>
<stop offset="0.99" stop-color="#086268"/>
<stop offset="1" stop-color="#076169"/>
</linearGradient>
<radialGradient id="paint20_radial_55_48" cx="0" cy="0" r="1" gradientUnits="userSpaceOnUse" gradientTransform="translate(228.355 140.829) scale(72.28 72.28)">
<stop stop-color="#A5E061"/>
<stop offset="1"/>
</radialGradient>
<linearGradient id="paint21_linear_55_48" x1="181.205" y1="159.919" x2="181.205" y2="229.229" gradientUnits="userSpaceOnUse">
<stop stop-color="#97DB3F"/>
<stop offset="0.17" stop-color="#84CB44"/>
<stop offset="0.51" stop-color="#54A352"/>
<stop offset="0.99" stop-color="#086268"/>
<stop offset="1" stop-color="#076169"/>
</linearGradient>
</defs>
</svg>
