<svg width="382" height="388" viewBox="0 0 382 388" fill="none" xmlns="http://www.w3.org/2000/svg">
<path d="M253.46 70.43C220.62 59.23 185.82 55.83 152.97 69.05C109.33 86.61 71.8499 131.18 68.3399 179.04C61.2399 275.9 164.48 301.24 214.06 220.33C216.34 216.61 224.19 204.44 222.03 200.99C220.25 198.16 202.67 189.03 203.61 184.98C208.86 179.18 246.38 168.59 247.37 163.43C234.33 134.6 201.04 123.05 171.59 133.94C139.13 145.94 119.2 179.99 120.53 214.02C118.63 213.39 118.24 208.6 117.79 206.69C100.54 133.9 190.83 85.93 251.91 121.23C302.13 150.26 300.39 207.13 281.92 255.56C277.23 255.15 270.76 242.61 266.47 245.41C247.64 277.54 213.63 305.42 177.52 315.5C128.55 329.18 78.4399 312.1 46.3599 273.37C41.9799 268.09 33.0999 249.84 30.3399 247.86C25.4299 244.33 9.03993 243.62 6.89993 241.04C2.05993 222.49 0.0699364 203.14 0.879936 183.95L22.6399 172.48C25.5999 164.72 25.8699 156.2 28.0499 148.22C39.2999 106.92 66.9899 71.85 101.19 46.91C105.49 43.78 124.71 30.85 128.55 30.28C132.11 29.74 136.53 34.46 141.1 34.44C144.54 34.42 175.21 26.72 176.17 25.18C177.61 18.79 174.9 4.35003 182.21 2.14003C184.57 1.43003 196.32 0.530029 199.35 0.530029C206.78 0.540029 218.97 1.94003 226.63 2.93003C230.5 3.43003 248.2 6.13003 249.31 8.65003C247.13 29.1 245.09 51.04 253.48 70.41L253.46 70.43ZM356.67 324.96C358.87 322.13 367.76 310.44 368.36 308.07C369.87 302.14 358.26 297.3 356.76 291.82C373.19 254.9 384.61 212.68 380.42 171.91C377.85 146.87 369.33 122.87 356.68 101.3C354.46 101.02 355.85 103.65 356.05 104.9C369.39 187.95 336.16 289.67 262.13 334.85C189.04 379.45 96.3999 361.99 42.2299 297.1C56.1099 325.96 80.8199 349.89 108.65 365.36C168.95 398.9 244.43 393.44 300.82 354.55C303.33 352.82 311.4 345.03 312.46 344.74C317.43 343.38 325.73 351.75 329.8 351.42C334.28 351.05 340.06 343.75 343.15 340.51C347.51 335.93 352.8 329.94 356.67 324.95V324.96Z" fill="url(#paint0_linear_57_174)"/>
<mask id="mask0_57_174" style="mask-type:luminance" maskUnits="userSpaceOnUse" x="0" y="0" width="382" height="388">
<path d="M253.46 70.43C220.62 59.23 185.82 55.83 152.97 69.05C109.33 86.61 71.8499 131.18 68.3399 179.04C61.2399 275.9 164.48 301.24 214.06 220.33C216.34 216.61 224.19 204.44 222.03 200.99C220.25 198.16 202.67 189.03 203.61 184.98C208.86 179.18 246.38 168.59 247.37 163.43C234.33 134.6 201.04 123.05 171.59 133.94C139.13 145.94 119.2 179.99 120.53 214.02C118.63 213.39 118.24 208.6 117.79 206.69C100.54 133.9 190.83 85.93 251.91 121.23C302.13 150.26 300.39 207.13 281.92 255.56C277.23 255.15 270.76 242.61 266.47 245.41C247.64 277.54 213.63 305.42 177.52 315.5C128.55 329.18 78.4399 312.1 46.3599 273.37C41.9799 268.09 33.0999 249.84 30.3399 247.86C25.4299 244.33 9.03993 243.62 6.89993 241.04C2.05993 222.49 0.0699364 203.14 0.879936 183.95L22.6399 172.48C25.5999 164.72 25.8699 156.2 28.0499 148.22C39.2999 106.92 66.9899 71.85 101.19 46.91C105.49 43.78 124.71 30.85 128.55 30.28C132.11 29.74 136.53 34.46 141.1 34.44C144.54 34.42 175.21 26.72 176.17 25.18C177.61 18.79 174.9 4.35003 182.21 2.14003C184.57 1.43003 196.32 0.530029 199.35 0.530029C206.78 0.540029 218.97 1.94003 226.63 2.93003C230.5 3.43003 248.2 6.13003 249.31 8.65003C247.13 29.1 245.09 51.04 253.48 70.41L253.46 70.43ZM356.67 324.96C358.87 322.13 367.76 310.44 368.36 308.07C369.87 302.14 358.26 297.3 356.76 291.82C373.19 254.9 384.61 212.68 380.42 171.91C377.85 146.87 369.33 122.87 356.68 101.3C354.46 101.02 355.85 103.65 356.05 104.9C369.39 187.95 336.16 289.67 262.13 334.85C189.04 379.45 96.3999 361.99 42.2299 297.1C56.1099 325.96 80.8199 349.89 108.65 365.36C168.95 398.9 244.43 393.44 300.82 354.55C303.33 352.82 311.4 345.03 312.46 344.74C317.43 343.38 325.73 351.75 329.8 351.42C334.28 351.05 340.06 343.75 343.15 340.51C347.51 335.93 352.8 329.94 356.67 324.95V324.96Z" fill="white"/>
</mask>
<g mask="url(#mask0_57_174)">
<path d="M200.78 401.2C311.281 401.2 400.86 311.621 400.86 201.12C400.86 90.6189 311.281 1.04004 200.78 1.04004C90.2788 1.04004 0.699951 90.6189 0.699951 201.12C0.699951 311.621 90.2788 401.2 200.78 401.2Z" fill="url(#paint1_linear_57_174)"/>
</g>
<path d="M314.29 83.98C337.193 83.98 355.76 65.4133 355.76 42.51C355.76 19.6068 337.193 1.04004 314.29 1.04004C291.387 1.04004 272.82 19.6068 272.82 42.51C272.82 65.4133 291.387 83.98 314.29 83.98Z" fill="#EFA71D"/>
<defs>
<linearGradient id="paint0_linear_57_174" x1="0.699936" y1="194" x2="381.3" y2="194" gradientUnits="userSpaceOnUse">
<stop stop-color="#3FA036"/>
<stop offset="0.23" stop-color="#308D44"/>
<stop offset="0.69" stop-color="#0A5C6A"/>
<stop offset="0.72" stop-color="#08596D"/>
</linearGradient>
<linearGradient id="paint1_linear_57_174" x1="2.16778" y1="225.193" x2="399.393" y2="176.983" gradientUnits="userSpaceOnUse">
<stop stop-color="#3FA036"/>
<stop offset="0.13" stop-color="#39983B"/>
<stop offset="0.32" stop-color="#29834B"/>
<stop offset="0.54" stop-color="#0F6265"/>
<stop offset="0.6" stop-color="#08596D"/>
</linearGradient>
</defs>
</svg>
